<?xml version="1.0" standalone="no"?>
<!DOCTYPE svg PUBLIC "-//W3C//DTD SVG 20010904//EN"
 "http://www.w3.org/TR/2001/REC-SVG-20010904/DTD/svg10.dtd">
<svg version="1.0" xmlns="http://www.w3.org/2000/svg"
 width="256.000000pt" height="203.000000pt" viewBox="0 0 256.000000 203.000000"
 preserveAspectRatio="xMidYMid meet">

<g transform="translate(0.000000,203.000000) scale(0.100000,-0.100000)"
fill="#000000" stroke="none">
<path d="M1568 1749 c-10 -5 -23 -20 -29 -32 -10 -18 -7 -17 14 6 30 31 72 36
117 12 17 -9 30 -13 30 -11 0 3 -13 12 -30 21 -33 17 -77 19 -102 4z"/>
<path d="M1710 1717 c0 -2 15 -16 33 -33 l32 -29 -29 33 c-28 30 -36 37 -36
29z"/>
<path d="M1589 1673 c-13 -16 -12 -17 4 -4 16 13 21 21 13 21 -2 0 -10 -8 -17
-17z"/>
<path d="M1688 1641 c3 -27 8 -38 17 -35 7 3 22 -10 34 -28 19 -28 21 -29 15
-8 -6 23 -6 24 11 10 17 -14 18 -14 5 10 -13 26 -70 90 -80 90 -3 0 -4 -18 -2
-39z"/>
<path d="M1688 1563 c5 -10 8 -23 5 -29 -2 -6 3 -11 11 -11 13 0 13 4 0 29 -8
15 -17 28 -20 28 -2 0 -1 -8 4 -17z"/>
<path d="M1800 1487 c0 -8 7 -18 16 -21 11 -4 14 -1 12 11 -4 21 -28 30 -28
10z"/>
<path d="M1850 1458 c0 -7 18 -23 41 -36 63 -36 79 -72 79 -173 l0 -86 35 -10
35 -11 0 86 c0 116 -14 143 -105 199 -76 46 -85 49 -85 31z"/>
<path d="M1377 1079 c33 -10 39 -22 42 -76 1 -38 -12 -49 -33 -27 -20 20 -21
43 -1 50 8 4 15 10 15 16 0 5 -4 7 -9 3 -6 -3 -14 3 -20 12 -8 14 -10 15 -11
3 0 -13 -1 -13 -10 0 -20 31 -10 -34 10 -68 35 -57 90 -63 90 -10 0 57 -42
109 -87 107 -10 0 -4 -5 14 -10z"/>
<path d="M1386 1007 c3 -10 9 -15 12 -12 3 3 0 11 -7 18 -10 9 -11 8 -5 -6z"/>
<path d="M2078 808 c-2 -112 -1 -206 2 -210 3 -3 16 -8 30 -10 l25 -3 3 172
c2 172 2 173 -24 213 -15 22 -28 40 -29 40 -2 0 -5 -91 -7 -202z"/>
<path d="M1277 823 c-11 -10 -8 -53 3 -53 13 0 60 41 60 52 0 10 -54 11 -63 1z"/>
<path d="M1400 810 c0 -16 -22 -31 -105 -70 -81 -37 -104 -52 -99 -64 3 -9 8
-16 10 -16 3 0 49 23 104 50 65 32 100 56 100 66 0 13 3 14 14 5 12 -11 12
-18 -4 -54 -18 -40 -18 -43 -2 -72 10 -16 43 -44 75 -62 54 -30 56 -31 41 -7
-9 13 -20 24 -24 24 -4 0 -19 12 -34 26 -21 22 -26 36 -26 75 0 26 4 51 10 54
5 3 24 -2 41 -11 25 -13 29 -18 18 -26 -10 -6 -7 -7 10 -3 17 5 22 4 16 -5 -5
-9 -4 -11 3 -6 18 11 101 -42 118 -75 18 -35 22 -36 19 -5 -2 18 1 23 11 19 8
-3 12 -8 9 -11 -2 -3 14 -14 37 -24 82 -37 45 -10 -107 78 -112 64 -155 94
-155 108 0 14 -5 17 -22 13 -12 -3 -30 -2 -40 4 -15 8 -18 6 -18 -11z"/>
<path d="M1970 482 c0 -116 -7 -142 -35 -142 -6 0 -87 45 -181 99 -93 54 -171
97 -173 95 -3 -2 4 -16 15 -30 22 -30 386 -244 414 -244 27 0 30 18 30 169 l0
137 -29 17 c-16 9 -32 17 -35 17 -3 0 -6 -53 -6 -118z"/>
<path d="M1219 562 c0 -4 0 -28 1 -54 1 -37 -6 -62 -33 -113 -34 -64 -34 -66
-15 -76 16 -9 19 -8 16 3 -3 7 12 41 33 75 21 35 41 74 45 88 7 30 8 30 44 5
l28 -20 -19 -51 c-25 -65 -22 -80 11 -67 19 7 21 11 10 18 -11 7 -11 12 -2 23
6 7 18 32 26 54 14 39 13 43 -10 77 -20 30 -29 35 -49 30 -14 -3 -38 -1 -55 4
-16 6 -30 8 -31 4z"/>
<path d="M2226 557 c8 -21 -29 -40 -44 -25 -9 9 -12 9 -12 -1 0 -22 139 -274
162 -294 18 -15 23 -16 42 -3 13 9 20 23 18 38 -3 31 -143 290 -160 296 -7 2
-10 -2 -6 -11z"/>
<path d="M1320 60 c-360 -3 -564 -6 -452 -8 127 -1 201 -6 197 -12 -3 -5 10
-8 32 -6 21 2 57 -3 80 -9 28 -9 41 -9 36 -2 -4 7 0 8 13 2 36 -15 92 -17 712
-22 l622 -4 0 29 0 30 -122 7 c-68 4 -199 5 -293 3 -93 -1 -465 -5 -825 -8z"/>
<path d="M650 53 c0 -6 8 -17 18 -24 16 -13 16 -13 2 6 -8 11 -16 22 -17 24
-2 2 -3 0 -3 -6z"/>
</g>
</svg>
